<?xml version="1.0" encoding="utf-8"?>
<!DOCTYPE svg PUBLIC "-//W3C//DTD SVG 1.1//EN" "http://www.w3.org/Graphics/SVG/1.1/DTD/svg11.dtd">
<svg version="1.1" baseProfile="full"
 xmlns="http://www.w3.org/2000/svg"
 xmlns:xlink="http://www.w3.org/1999/xlink"
 xmlns:ev="http://www.w3.org/2001/xml-events" 
  height="94px" 
  width="74px" 
>
<path stroke="rgb( 255, 255, 255 )" stroke-width="1px" stroke-linecap="butt" stroke-linejoin="miter" fill="rgb( 202, 202, 202 )"
 d="M36.8130000000001,0.00999999999999 C36.8130000000001,0.00999999999999 37.0909999999999,0.191 37.0909999999999,0.191 C37.0909999999999,0.191 72.8209999999999,23.243 72.8209999999999,23.243 C72.8209999999999,23.243 73.008,69.76 73.008,69.76 C73.008,69.76 37.441,92.847 37.441,92.847 C37.441,92.847 37.1849999999999,93.015 37.1849999999999,93.015 C37.1849999999999,93.015 1.17800000000011,70.185 1.17800000000011,70.185 C1.17800000000011,70.185 0.99199999999996,23.668 0.99199999999996,23.668 C0.99199999999996,23.668 36.8130000000001,0.00999999999999 36.8130000000001,0.00999999999999 Z "/>
<path opacity="0.2" fill="rgb( 165, 165, 165 )"
 d="M2.26299999999992,23.967 C2.26299999999992,23.967 37.6020000000001,46.319 37.6020000000001,46.319 C37.6020000000001,46.319 37.2460000000001,0.63900000000001 37.2460000000001,0.63900000000001 C37.2460000000001,0.63900000000001 2.26299999999992,23.967 2.26299999999992,23.967 Z "/>
<path opacity="0.702" fill="rgb( 165, 165, 165 )"
 d="M72.3389999999999,68.902 C72.3389999999999,68.902 72.1569999999999,23.333 72.1569999999999,23.333 C72.1569999999999,23.333 36.998,46.326 36.998,46.326 C36.998,46.326 72.3389999999999,68.902 72.3389999999999,68.902 Z "/>
<path opacity="0.502" fill="rgb( 165, 165, 165 )"
 d="M37.846,91.892 C37.846,91.892 72.8900000000001,68.899 72.8900000000001,68.899 C72.8900000000001,68.899 37.606,46.211 37.606,46.211 C37.606,46.211 37.846,91.892 37.846,91.892 Z "/>
</svg>
