<svg style="position: absolute; width: 0; height: 0;" width="0" height="0" version="1.1" xmlns="http://www.w3.org/2000/svg" xmlns:xlink="http://www.w3.org/1999/xlink">
<defs>
<symbol id="icon-facebook25" viewBox="0 0 47 32">
<title>facebook25</title>
<path class="path1" d="M25.939 10.928v-2.536c0-0.381 0.018-0.675 0.053-0.884s0.116-0.414 0.241-0.616c0.125-0.202 0.327-0.342 0.607-0.42s0.652-0.116 1.116-0.116h2.535v-5.071h-4.053c-2.346 0-4.030 0.556-5.054 1.669s-1.536 2.753-1.536 4.92v3.054h-3.036v5.072h3.036v14.714h6.089v-14.714h4.053l0.536-5.072h-4.589z"></path>
</symbol>
<symbol id="icon-linkedin10" viewBox="0 0 47 32">
<title>linkedin10</title>
<path class="path1" d="M10.296 11.411h5.893v17.696h-5.893v-17.696z"></path>
<path class="path2" d="M35.528 13.027c-1.238-1.351-2.875-2.027-4.91-2.027-0.75 0-1.432 0.092-2.045 0.277s-1.131 0.443-1.554 0.777c-0.423 0.333-0.759 0.643-1.009 0.928-0.238 0.271-0.47 0.587-0.697 0.945v-2.516h-5.875l0.018 0.857c0.012 0.572 0.018 2.333 0.018 5.286s-0.012 6.803-0.036 11.554h5.875v-9.875c0-0.607 0.065-1.089 0.196-1.447 0.25-0.607 0.628-1.116 1.134-1.527s1.134-0.616 1.884-0.616c1.024 0 1.777 0.354 2.259 1.063s0.723 1.687 0.723 2.937v9.464h5.875v-10.142c-0-2.607-0.619-4.586-1.857-5.937z"></path>
<path class="path3" d="M13.278 2.893c-0.988 0-1.789 0.289-2.402 0.866s-0.92 1.306-0.92 2.187c0 0.869 0.298 1.595 0.893 2.178s1.381 0.875 2.357 0.875h0.036c1 0 1.807-0.291 2.42-0.875s0.914-1.309 0.902-2.178c-0.012-0.881-0.316-1.61-0.911-2.187s-1.387-0.866-2.375-0.866z"></path>
</symbol>
<symbol id="icon-twitter16" viewBox="0 0 47 32">
<title>twitter16</title>
<path class="path1" d="M37.743 7.286c-1.107 0.476-2.215 0.774-3.321 0.893 1.25-0.75 2.095-1.81 2.536-3.179-1.143 0.678-2.363 1.143-3.661 1.393-1.143-1.214-2.547-1.822-4.214-1.822-1.595 0-2.955 0.562-4.080 1.687s-1.687 2.485-1.687 4.080c0 0.428 0.048 0.869 0.143 1.321-2.357-0.119-4.569-0.711-6.634-1.777s-3.819-2.485-5.259-4.259c-0.524 0.893-0.786 1.863-0.786 2.911 0 0.988 0.232 1.905 0.697 2.75s1.089 1.53 1.875 2.053c-0.929-0.036-1.798-0.28-2.607-0.732v0.071c0 1.393 0.437 2.616 1.312 3.67s1.979 1.717 3.312 1.991c-0.5 0.131-1.006 0.196-1.518 0.196-0.333 0-0.697-0.030-1.089-0.089 0.369 1.155 1.048 2.104 2.036 2.848s2.107 1.128 3.357 1.152c-2.095 1.643-4.482 2.464-7.161 2.464-0.512 0-0.976-0.023-1.393-0.071 2.679 1.726 5.631 2.589 8.857 2.589 2.048 0 3.97-0.324 5.767-0.973s3.333-1.518 4.607-2.607c1.274-1.089 2.372-2.342 3.294-3.759s1.61-2.896 2.062-4.437c0.452-1.542 0.679-3.086 0.679-4.634 0-0.333-0.006-0.583-0.018-0.75 1.131-0.821 2.096-1.815 2.893-2.982z"></path>
</symbol>
</defs>
</svg>
