<?xml version="1.0" encoding="utf-8"?>
<!-- Generated by IcoMoon.io -->
<!DOCTYPE svg PUBLIC "-//W3C//DTD SVG 1.1//EN" "http://www.w3.org/Graphics/SVG/1.1/DTD/svg11.dtd">
<svg version="1.1" xmlns="http://www.w3.org/2000/svg" xmlns:xlink="http://www.w3.org/1999/xlink" width="47" height="32" viewBox="0 0 47 32">
<path d="M10.296 11.411h5.893v17.696h-5.893v-17.696z"></path>
<path d="M35.528 13.027c-1.238-1.351-2.875-2.027-4.91-2.027-0.75 0-1.432 0.092-2.045 0.277s-1.131 0.443-1.554 0.777c-0.423 0.333-0.759 0.643-1.009 0.928-0.238 0.271-0.47 0.587-0.697 0.945v-2.516h-5.875l0.018 0.857c0.012 0.572 0.018 2.333 0.018 5.286s-0.012 6.803-0.036 11.554h5.875v-9.875c0-0.607 0.065-1.089 0.196-1.447 0.25-0.607 0.628-1.116 1.134-1.527s1.134-0.616 1.884-0.616c1.024 0 1.777 0.354 2.259 1.063s0.723 1.687 0.723 2.937v9.464h5.875v-10.142c-0-2.607-0.619-4.586-1.857-5.937z"></path>
<path d="M13.278 2.893c-0.988 0-1.789 0.289-2.402 0.866s-0.92 1.306-0.92 2.187c0 0.869 0.298 1.595 0.893 2.178s1.381 0.875 2.357 0.875h0.036c1 0 1.807-0.291 2.42-0.875s0.914-1.309 0.902-2.178c-0.012-0.881-0.316-1.61-0.911-2.187s-1.387-0.866-2.375-0.866z"></path>
</svg>
