<svg xmlns="http://www.w3.org/2000/svg" xmlns:xlink="http://www.w3.org/1999/xlink" xmlns:ev="http://www.w3.org/2001/xml-events" version="1.1" baseProfile="full" height="105" width="93">
  <path fill="rgb( 0, 0, 0 )" d="M46.6 104.99C46.6 104.99 0.99 78.99 0.99 78.99 0.99 78.99 0.99 26.98 0.99 26.98 0.99 26.98 46.6 0.98 46.6 0.98 46.6 0.98 92.21 26.98 92.21 26.98 92.21 26.98 92.21 78.99 92.21 78.99 92.21 78.99 46.6 104.99 46.6 104.99ZM23.71 75.43C23.71 75.43 40.41 65.3 40.41 65.3 40.41 65.3 23.71 57.1 23.71 57.1 23.71 57.1 23.71 75.43 23.71 75.43ZM23.67 30.57C23.67 30.57 23.67 52.98 23.67 52.98 23.67 52.98 69.07 75.4 69.07 75.4 69.07 75.4 69.07 52.98 69.07 52.98 69.07 52.98 23.67 30.57 23.67 30.57ZM69.3 30.64C69.3 30.64 52.79 40.72 52.79 40.72 52.79 40.72 69.3 48.88 69.3 48.88 69.3 48.88 69.3 30.64 69.3 30.64Z"/>
</svg>