<svg xmlns="http://www.w3.org/2000/svg" xmlns:xlink="http://www.w3.org/1999/xlink" xmlns:ev="http://www.w3.org/2001/xml-events" version="1.1" baseProfile="full" height="38" width="352">
  <path fill="rgb( 0, 0, 0 )" d="M336.37 13.23C336.95 13.6 337.61 13.93 338.36 14.23 339.11 14.52 339.94 14.83 340.85 15.14 342.73 15.85 344.37 16.54 345.77 17.22 347.16 17.9 348.32 18.7 349.25 19.61 350.17 20.52 350.86 21.59 351.32 22.81 351.77 24.04 352 25.53 352 27.28 352 30.68 350.81 33.31 348.44 35.18 346.06 37.06 342.49 37.99 337.71 37.99 336.1 37.99 334.66 37.9 333.36 37.71 332.07 37.51 330.93 37.28 329.94 37 328.94 36.72 328.09 36.42 327.37 36.1 326.66 35.79 326.06 35.49 325.57 35.21 325.57 35.21 327.87 28.7 327.87 28.7 328.95 29.29 330.29 29.83 331.87 30.3 333.46 30.77 335.41 31.01 337.71 31.01 338.86 31.01 339.81 30.91 340.56 30.72 341.31 30.53 341.91 30.27 342.37 29.93 342.82 29.6 343.13 29.21 343.31 28.75 343.48 28.3 343.57 27.79 343.57 27.23 343.57 26.04 343.01 25.05 341.9 24.26 340.78 23.47 338.86 22.62 336.14 21.71 334.95 21.29 333.77 20.81 332.58 20.27 331.39 19.72 330.33 19.04 329.39 18.22 328.45 17.4 327.68 16.4 327.08 15.22 326.49 14.05 326.2 12.62 326.2 10.94 326.2 9.26 326.51 7.75 327.14 6.4 327.76 5.05 328.65 3.9 329.81 2.96 330.96 2.01 332.35 1.29 333.99 0.78 335.63 0.27 337.48 0.02 339.54 0.02 341.98 0.02 344.09 0.28 345.87 0.8 347.65 1.33 349.12 1.91 350.27 2.54 350.27 2.54 347.91 9 347.91 9 346.9 8.47 345.78 8.01 344.54 7.61 343.3 7.2 341.81 7 340.06 7 338.11 7 336.71 7.27 335.85 7.82 335 8.36 334.57 9.19 334.57 10.31 334.57 10.98 334.73 11.54 335.04 11.99 335.35 12.45 335.8 12.86 336.37 13.23ZM290.08 37.73C288.1 37.73 286.12 37.67 284.15 37.55 282.17 37.43 280.12 37.14 278 36.68 278 36.68 278 1.38 278 1.38 279.67 1.07 281.5 0.83 283.49 0.67 285.48 0.51 287.33 0.44 289.04 0.44 291.34 0.44 293.46 0.6 295.4 0.94 297.33 1.27 299 1.84 300.4 2.64 301.79 3.45 302.88 4.51 303.67 5.82 304.45 7.13 304.84 8.75 304.84 10.68 304.84 13.59 303.45 15.88 300.66 17.56 302.96 18.44 304.53 19.63 305.37 21.13 306.2 22.64 306.62 24.34 306.62 26.23 306.62 30.05 305.24 32.92 302.46 34.84 299.69 36.77 295.56 37.73 290.08 37.73ZM295.27 7.95C294.15 7.35 292.51 7.05 290.35 7.05 289.65 7.05 288.9 7.06 288.1 7.08 287.29 7.1 286.58 7.14 285.95 7.21 285.95 7.21 285.95 15.14 285.95 15.14 285.95 15.14 289.93 15.14 289.93 15.14 292.44 15.14 294.24 14.82 295.32 14.17 296.4 13.53 296.94 12.48 296.94 11.05 296.94 9.58 296.38 8.54 295.27 7.95ZM296.47 22.47C295.21 21.76 293.42 21.4 291.08 21.4 291.08 21.4 285.95 21.4 285.95 21.4 285.95 21.4 285.95 30.8 285.95 30.8 286.54 30.87 287.19 30.92 287.89 30.96 288.58 30.99 289.35 31.01 290.19 31.01 292.63 31.01 294.6 30.66 296.1 29.96 297.6 29.26 298.35 27.96 298.35 26.07 298.35 24.39 297.73 23.19 296.47 22.47ZM248.64 33.36C248.18 32.03 247.71 30.7 247.25 29.38 247.25 29.38 233.09 29.38 233.09 29.38 232.63 30.71 232.17 32.04 231.71 33.37 231.25 34.71 230.82 36 230.43 37.26 230.43 37.26 221.95 37.26 221.95 37.26 223.31 33.34 224.61 29.71 225.83 26.39 227.06 23.06 228.25 19.93 229.43 16.98 230.6 14.04 231.75 11.25 232.89 8.6 234.03 5.96 235.21 3.38 236.44 0.86 236.44 0.86 244.17 0.86 244.17 0.86 245.37 3.38 246.54 5.96 247.7 8.6 248.85 11.25 250.02 14.04 251.19 16.98 252.37 19.93 253.57 23.06 254.8 26.39 256.02 29.71 257.32 33.34 258.69 37.26 258.69 37.26 249.94 37.26 249.94 37.26 249.54 35.99 249.1 34.7 248.64 33.36ZM243.7 18.34C243.18 16.9 242.69 15.59 242.22 14.4 241.75 13.2 241.34 12.15 240.99 11.24 240.64 10.33 240.35 9.62 240.13 9.1 239.95 9.63 239.68 10.35 239.33 11.26 238.98 12.17 238.58 13.22 238.14 14.42 237.69 15.61 237.19 16.92 236.63 18.36 236.08 19.79 235.52 21.29 234.94 22.87 234.94 22.87 245.32 22.87 245.32 22.87 244.76 21.29 244.22 19.78 243.7 18.34ZM179.87 0.86C179.87 0.86 188.04 0.86 188.04 0.86 188.04 0.86 188.04 30.22 188.04 30.22 188.04 30.22 204.1 30.22 204.1 30.22 204.1 30.22 204.1 37.26 204.1 37.26 204.1 37.26 179.87 37.26 179.87 37.26 179.87 37.26 179.87 0.86 179.87 0.86ZM148.21 17.2C148.21 17.2 147.86 17.2 147.86 17.2 147.57 16.43 147.27 15.67 146.98 14.91 145.88 12.05 144.74 9.31 143.55 6.69 142.33 9.31 141.17 12.05 140.07 14.91 138.97 17.76 137.88 20.71 136.8 23.76 136.8 23.76 136.89 23.76 136.89 23.76 136.89 23.76 131.69 37.26 131.69 37.26 131.69 37.26 126.75 37.26 126.75 37.26 128.15 33.41 129.46 29.85 130.68 26.57 131.9 23.3 133.1 20.19 134.26 17.25 135.43 14.3 136.59 11.49 137.74 8.81 138.9 6.13 140.1 3.48 141.35 0.86 141.35 0.86 146.01 0.86 146.01 0.86 147.27 3.48 148.47 6.13 149.62 8.81 150.78 11.49 151.94 14.3 153.1 17.25 154.27 20.19 155.47 23.3 156.69 26.57 157.91 29.85 159.22 33.41 160.61 37.26 160.61 37.26 155.1 37.26 155.1 37.26 155.1 37.26 148.21 17.2 148.21 17.2ZM101.53 26.7C103.13 28.45 104.64 30.24 106.06 32.06 107.47 33.88 108.65 35.61 109.59 37.26 109.59 37.26 103.62 37.26 103.62 37.26 102.58 35.61 101.37 33.96 100.01 32.3 98.65 30.63 97.21 29.04 95.69 27.52 94.18 25.99 92.64 24.58 91.09 23.29 89.54 21.99 88.03 20.89 86.56 19.98 86.56 19.98 86.56 37.26 86.56 37.26 86.56 37.26 81.49 37.26 81.49 37.26 81.49 37.26 81.49 0.86 81.49 0.86 81.49 0.86 86.56 0.86 86.56 0.86 86.56 0.86 86.56 16.93 86.56 16.93 87.78 15.77 89.13 14.47 90.59 13.02 92.06 11.56 93.51 10.1 94.94 8.63 96.37 7.16 97.72 5.75 98.99 4.4 100.27 3.05 101.34 1.87 102.21 0.86 102.21 0.86 108.33 0.86 108.33 0.86 107.25 2.05 106.03 3.37 104.67 4.82 103.31 6.28 101.89 7.76 100.41 9.29 98.92 10.81 97.45 12.31 95.98 13.78 94.52 15.25 93.14 16.61 91.85 17.88 93.35 18.93 94.94 20.22 96.61 21.76 98.29 23.31 99.93 24.95 101.53 26.7ZM52.76 0.86C52.76 0.86 57.83 0.86 57.83 0.86 57.83 0.86 57.83 37.26 57.83 37.26 57.83 37.26 52.76 37.26 52.76 37.26 52.76 37.26 52.76 0.86 52.76 0.86ZM22.22 32.9C21.22 31.29 20.15 29.62 19 27.88 17.85 26.15 16.65 24.39 15.42 22.6 14.18 20.82 12.95 19.09 11.73 17.43 10.5 15.77 9.32 14.2 8.17 12.73 7.02 11.26 5.95 9.96 4.98 8.84 4.98 8.84 4.98 37.26 4.98 37.26 4.98 37.26 0 37.26 0 37.26 0 37.26 0 0.86 0 0.86 0 0.86 4.03 0.86 4.03 0.86 5.67 2.61 7.43 4.65 9.29 6.98 11.16 9.3 13.01 11.7 14.84 14.17 16.67 16.64 18.4 19.07 20.02 21.45 21.64 23.83 23.01 25.95 24.13 27.81 24.13 27.81 24.13 0.86 24.13 0.86 24.13 0.86 29.1 0.86 29.1 0.86 29.1 0.86 29.1 37.26 29.1 37.26 29.1 37.26 24.86 37.26 24.86 37.26 24.09 35.97 23.21 34.51 22.22 32.9Z"/>
</svg>