<svg xmlns="http://www.w3.org/2000/svg" xmlns:xlink="http://www.w3.org/1999/xlink" xmlns:a="http://ns.adobe.com/AdobeSVGViewerExtensions/3.0/" version="1.1" x="0" y="0" width="64" height="95" viewBox="-0.24 -0.85 64 95" enable-background="new -0.245 -0.854 64 95" xml:space="preserve">
  <path d="M55.59 42.67c0.29-1.87-0.45-3.62-0.69-5.42 -0.52-3.92-1.86-6.95-2.06-10.93 -0.02-0.44-0.11-0.95-0.36-1.29 -0.74-1-1.12-2.15-1.59-3.27 -0.12-0.29-0.28-0.57-0.48-0.81 -0.46-0.56-0.79-1.19-1.15-1.82 -0.85-1.48-1.37-3.14-2.17-4.64 -0.34-0.63-0.95-1.13-1.86-1.15 -1.98-0.05-3.46-0.96-5.13-1.79 -0.04-0.02-0.05-0.07-0.08-0.11 -0.35-0.63-1.01-0.79-1.61-0.88 -0.58-0.1-1.16-0.21-1.7-0.41 -0.49-0.18-0.95-0.18-1.45-0.05 -1.1 0.26-2.2 0.28-3.34 0.13 -0.75-0.1-1.42-0.09-2.19 0.18 -0.68 0.24-1.43 0.63-2.16 0.61 -1.53-0.04-2.91 0.63-4.39 0.77 -0.76 0.07-1.45 0.28-2.16 0.64 -1.66 0.84-3.32 1.5-4.55 2.96 -0.14 0.17-0.38 0.24-0.56 0.38 -0.79 0.6-1.58 0.52-2.36 1.13 -1.33 1.06-2.01 2.55-2.42 4.13 -0.66 2.53-1.18 5.09-1.81 7.63 -0.16 0.63-0.24 1.28-0.09 1.88 0.13 0.53 0.04 0.96-0.09 1.44 -0.29 1.17-0.73 2.3-0.9 3.52 -0.12 0.9 0.13 1.69 0.12 2.54 -0.04 3.04 0 6.07 0.01 9.11 0.01 1.72 0.22 3.41 0.79 5.05 0.29 0.85 0.63 1.68 0.94 2.52 0.67 1.78 1.09 3.65 1.4 5.49 0.37 2.16 2.05 3.09 3.35 4.4 0.43 0.43 0.94 0.14 1.04-0.5 0.04-0.22 0.06-0.47 0-0.67 -0.61-2.05 0.05-3.59 0.61-5.55 0.2-0.71 0.56-1.3 1.03-1.88 0.8-0.81 2.08-2.35 4.55-2.51 1.31-0.15 2.95-0.46 4.2-0.45 2.09 0.02 3.49 1.02 5.37 1.29 1.21 0.17 2.31-0.95 3.46-1.04 3.63 0.01 5.02 1.31 8.19 0.88 1.6-0.42 2.44 0.45 3.98 1.7 0.54 0.62 0.99 1.47 1.11 2.27 0.18 1.16 0.83 1.35 0.51 2.58 -0.17 0.64 0.2 1.24 0.27 1.86 0.03 0.25 0.24 0.36 0.48 0.4 0.04 0.27 0.07 0.53 0.11 0.79 0.14 0.97 0.75 1.41 1.32 0.89 1.35-1.24 2.05-2.8 1.89-4.67 0.02-0.17 0.04-0.35 0.06-0.52 0.63-0.62 1.11-1.29 1.26-2.22 0.24-1.48 0-3.07 1.24-4.06C55.92 52.23 55.53 43.03 55.59 42.67zM57.4 53.01c0.07 0.44 0.08 0.9 0.03 1.35 -0.11 0.94-0.17 2.02 0.5 2.73 0.44 0.46 0.34 1.49 0.28 1.95 -0.19 1.29-0.25 2.61-0.58 3.89 -0.12 0.48-0.4 1.15 0.21 1.61 -0.01 0.2-0.03 0.41-0.04 0.61 -0.64 0.2-0.48 0.75-0.55 1.21 -0.18 1.3 0.1 2.62-0.16 3.92 -0.09 0.27-0.08 0.54 0.01 0.81 -0.03 0.13-0.08 0.26-0.09 0.39 -0.04 1.06 0.06 2.1-0.71 3.04 -0.42 0.52-0.15 1.19 0.41 1.64 0.28 2.15-0.12 3.97-0.66 6.19 -0.27 0.16-0.15 0.47-0.09 0.73 -0.07 0.05-0.09 0.12-0.07 0.2 -1.49 0.09-1.49 0.09-1.78 1.11 -0.55-0.04-0.9 0.4-1 0.76 -0.28 1.06-1.14 1.58-1.84 2.27 -0.94 0.13-1 0.2-1.16 1.53 -0.02 0.1-0.04 0.2-0.06 0.3 -0.5 0.16-0.61 0.62-0.77 1.04 -0.28 0.21-0.56 0.42-0.83 0.63 -0.08 0.04-0.16 0.11-0.24 0.12 -1.64 0.19-3.23 0.54-4.63 1.47 -0.14 0.09-0.36 0.05-0.52 0.12 -0.99 0.38-2.05-0.29-3.04 0.22 -0.19 0.1-0.42-0.11-0.6-0.26 -0.19-0.15-0.39-0.17-0.63-0.11 -1.23 0.27-2.51 0.39-3.69 0.81 -1.81 0.63-3.53 0.86-5.31-0.05 -0.42-0.22-1.02-0.41-1.43-0.28 -1.18 0.35-2.11-0.18-3.08-0.63 -0.21-0.1-0.4-0.2-0.63-0.11 -1.05 0.41-1.54-0.14-2-1.01 -0.44-0.83-1.13-1.67-2.1-1.77 -2.74-1.05-3.8-1.13-6.8-4.98 -0.89-1.14-1.76-1.63-2.46-4.91 0.24-0.33 0.58-0.71 0.34-1.1 -0.53-0.83-0.37-1.71-0.39-2.6 -0.02-0.81-0.21-1.57-1.04-2.06 -0.39-0.23-0.8-0.62-0.88-1.14 -0.11-0.68 0.11-1.43-0.55-1.95 0.41-1.17-1.36-2.08-0.4-3.33 0.04-0.05-0.17-0.29-0.25-0.44 -0.15-0.28-0.36-0.55-0.41-0.85 -0.34-2.03-0.87-4.03-0.98-6.1 0.13-0.05 0.34-0.07 0.36-0.15 0.35-1.05 0.17-2.2-0.28-3.04 -0.53-1.01-0.49-1.87-0.19-2.81 0.28-0.89 0.69-1.73 0.37-2.71 -0.1-0.3-0.11-0.65 0.07-0.93 0.61-0.93-0.06-2.02 0.38-2.98 0.11-0.23-0.23-0.46-0.38-0.68 -0.83-1.24-2.12-1.76-3.45-2.2 -0.13-0.13-0.26-0.27-0.39-0.4 0-0.49 0.11-1.02-0.36-1.38 -0.81-0.64-1.03-1.54-1.19-2.49 -0.05-0.29 0.05-0.66-0.35-0.81 -0.04-0.67-0.08-1.34-0.11-2.01 0.55-0.52 0.6-1.13 0.15-1.68 -0.34-0.41-0.35-0.83-0.28-1.26 0.13-0.81-0.1-1.49-0.58-2.12 -0.33-0.82-0.6-1.65-0.33-2.56 0.06 0.07 0.12 0.13 0.19 0.19 0.14 0.16 0.24 0.44 0.51 0.3 0.23-0.12 0.2-0.39 0.14-0.59 -0.05-0.16-0.2-0.28-0.29-0.43 -0.41-0.67-0.65-1.33-0.17-2.1 0.28-0.45 0.54-1.15 0.3-1.51 -0.54-0.85-0.27-1.74-0.45-2.6 0.15-0.47 0.1-1.1 0.85-1.13 0.11 0.2 0.09 0.68 0.48 0.36 0.41-0.34 0.6-0.8 0.65-1.4 0.07-0.92 0.17-1.91 0.59-2.7 0.47-0.88 0.32-2.15 1.52-2.64 0.1-0.04 0.06-0.42 0.09-0.64 0.18-0.76 0.87-1.31 0.84-2.17 -0.01-0.33 0.32-0.53 0.67-0.55 0.37-0.02 0.59 0.14 0.65 0.53 0.02 0.17 0.05 0.36 0.28 0.41 1.7-0.72 1.33-0.39 1.32-1.99l0.06-0.06c0.11-0.07 0.21-0.15 0.32-0.22 0.19 0.08 0.37 0.17 0.56 0.25 -0.14 0.49 0.05 0.87 0.39 1.21 0.4-0.04 0.28-0.55 0.62-0.65 0.28-0.08 0.67 0.01 0.76-0.43 0.43-0.03 0.98 0.11 0.9-0.64 0.71-0.43 0.5-1.46 1.22-1.91 0.15-0.1 0.02-0.43-0.13-0.61 -0.33-0.42-0.15-0.66 0.28-0.78 0.42-0.12 0.77-0.27 0.74-0.8 0.14-0.09 0.27-0.19 0.41-0.28 0.33-0.01 0.46-0.18 0.42-0.5 0.05-0.29 0.09-0.58 0.14-0.87 0.33-0.03 0.47-0.2 0.39-0.53 0.06-0.09 0.13-0.18 0.19-0.27 0.29 0.01 0.42-0.14 0.4-0.43 0.09-0.06 0.19-0.12 0.28-0.17 0.38 0.14 0.76 0.29 1.13 0.43 0.56 0.21 1.08 0.05 1.2-0.5 0.2-0.93 0.94-0.83 1.56-0.99 0.41-0.11 0.91 0.25 1.24-0.25 0.52 0.12 0.96-0.17 1.43-0.28 0.37 0.44 0.61 0.34 0.75-0.18 0.67-0.39 1.14-1.07 1.95-1.25C26.95 1.29 28.37 0.85 29.75 0c0.22 0.03 0.43 0.06 0.65 0.08 -0.06 0.19 0.02 0.48 0.15 0.43 0.98-0.36 2 0.77 2.98-0.13 0.22-0.2 0.54 0.17 0.74 0.43 0.41 0.52 1.1 0.56 1.43 0.16 0.64-0.79 1.12-0.49 1.67 0 0.44 0.39 0.86 0.7 1.4 0.17 0.26-0.26 0.48-0.1 0.71 0.09 0.32 0.26 0.68 0.46 1.09 0.53 0.35 0.05 0.65-0.02 0.62-0.48 0.48 0 0.76-0.4 1.14-0.57 0.47-0.21 1.06-0.58 1.42 0.22 -0.07 0.3 0.12 0.67 0.33 0.54 0.7-0.42 1.35 0.11 2.01 0 0.09 0.06 0.18 0.13 0.27 0.19l-0.01-0.02c-0.02 0.14-0.03 0.28-0.04 0.42 -0.34-0.07-0.69-0.13-1.03-0.21 -0.46-0.1-0.59 0.15-0.47 0.52 0.26 0.81 1.4 1.54 2.36 1.56 0.08 0.08 0.16 0.15 0.24 0.23 0.03 0.15 0.05 0.3 0.08 0.44 0 0.56 0.4 0.45 0.73 0.44 0.14 0.67 0.61 0.85 1.22 0.83 0.06 0.49 0.3 0.87 0.79 0.92 0.35 0.03 0.48-0.33 0.55-0.65 0.53 0.41 0.4 1.07 0.63 1.6 -0.32 0.17-0.28 0.37-0.08 0.62 0.41 0.5 0.99 0.45 1.54 0.49 0 0 0.1 0.04 0.1 0.04 -0.15 0.35 0.16 0.55 0.27 0.82 0 0.56 0 1.13 0.02 1.69 0.01 0.3-0.03 0.63 0.37 0.74 0.07-0.03 0.11-0.01 0.14 0.05 0.51 0.73 1.33 1.11 1.94 1.73 0.01 0.01 0.13-0.09 0.2-0.13 0.19-0.06 0.39-0.11 0.59-0.17 0.36 0.57 0.97 0.34 1.69 0.63 -0.37-0.64-0.39-1.16-0.97-1.3 0.08-0.19 0.15-0.38 0.23-0.57 0.14-0.03 0.29-0.07 0.43-0.1 1.42 0.19 2.25 0.89 2.16 2.42 -0.01 0.24 0.1 0.43 0.39 0.44 0.16 0.96-0.54 1.78-0.43 2.72 -0.3-0.02-0.65-0.16-0.75 0.3 -0.11 0.52-0.24 1.04-0.41 1.55 -0.19 0.61 0.15 1.12 0.51 1.58 0.27 0.35 0.55 0.14 0.8-0.07 0.11 0.61-0.33 0.98-0.6 1.43 -0.23 0.38-0.33 0.73 0.19 0.99 0.23 0.12 0.37 0.39 0.65 0.45 0.07 0.11 0.15 0.22 0.23 0.32 -0.08 0.53 0.21 0.94 0.48 1.34 0.2 0.3 0.35 0.56 0.28 0.97 -0.14 0.9 0.37 0.53 0.76 0.34 0.03 0.65 0.06 1.31 0.09 1.96 -0.6 0.52-0.99 1.12-0.94 2 0.73-0.23 0.42-1.29 1.25-1.29 -0.08 1.14 0.69 2.18 0.36 3.35 -0.07 0.25 0.41 0.35 0.27 0.67 -0.51-0.16-1.02-0.16-1.09 0.48 -0.06 0.48 0.41 0.44 0.76 0.42 -0.07 0.24-0.2 0.43-0.42 0.55 -0.83-0.01-1.33 0.28-1.13 0.78 0.33 0.84-0.12 1.35-0.49 1.94 -0.46 0.74-0.46 0.74 0.46 1.12 -0.05 0.18-0.11 0.36-0.16 0.54 -0.46 0.18-0.92 0.35-1.44 0.33 -0.56-0.03-0.99 0.28-1.12 0.81 -0.26 1.05-1.03 1.65-1.73 2.34C56.44 43.31 57.34 52.56 57.4 53.01zM44.47 59.26c-1.07-0.8-2.1-1.14-4.69-1.56 -1.54-0.15-3.14 0.04-4.62-0.7 -0.76-0.38-1.83 0.23-2.67 0.36 -1.1 0.18-2.03-0.48-3.1-0.09 -1.31 0.48-2.66 0.8-4.08 0.85 -0.62 0.02-1.24 0.19-1.85 0.33 -2.1 1.02-2.71 1.17-3.22 2.44 0.04 0.39 0.39 3.63 4.48 7.68 0.27 0.35 0.54 0.7 0.77 1.06 0.09 0.14 0.27 0.25 0.44 0.31 0.2 0.07 1.32 0.89 3.03 1 2.69 0.17 5.7 0.43 5.7 0.42 0.64 0.39 2.13-0.46 2.92-0.52 0.36-0.02 0.62-0.13 0.63-0.54 0.16-0.05 0.33-0.1 0.49-0.16 0.28 0.18 0.59 0.16 0.9 0.16 1.21-0.01 1.29-0.1 1.28-1.41l0.02-0.02c0.18 0.04 0.38 0.06 0.51-0.08 1.02-1.15 1.8-2.44 2.11-3.83 0.13-0.59 0.52-3.02 0.83-4.03C44.55 60.31 44.65 59.7 44.47 59.26zM2.8 28.92c-0.19 0.01-0.41 0.07-0.46 0.34 -0.05 0.29 0.14 0.41 0.38 0.43 0.28 0.02 0.58-0.03 0.59-0.39C3.32 29.05 3.1 28.94 2.8 28.92z"/>
</svg>