<svg xmlns="http://www.w3.org/2000/svg" xmlns:xlink="http://www.w3.org/1999/xlink" xmlns:a="http://ns.adobe.com/AdobeSVGViewerExtensions/3.0/" version="1.1" x="0" y="0" width="73" height="111" viewBox="-0.44 -0.99 73 111" enable-background="new -0.437 -0.99 73 111" xml:space="preserve">
  <path d="M71.9 78.06c-0.26 0.42 0.05 0.69 0.55 0.41 -0.02 0.2-0.04 0.39-0.07 0.59 -0.48 0.44-0.74 0.91-0.38 1.57 0.1 0.18 0.09 0.45 0.06 0.67 -0.08 0.58-0.3 1.14-0.24 1.75 0.06 0.58-0.5 1.15-0.16 1.73 0.48 0.83-0.58 0.88-0.65 1.42 -0.01 0.09-0.01 0.19-0.03 0.27 -0.18 0.82-0.11 1.6 0.33 2.33 -0.49 0.33-0.27 0.84-0.31 1.27 -0.04 0.41 0.11 0.87-0.19 1.21 -0.45 0.5-0.22 0.93 0.07 1.37 0.26 0.39 0.55 0.74 0.77 1.15 0.35 0.65 0.21 1.77-0.25 2.06 -0.62 0.38-0.88-0.28-1.27-0.53 -0.04-0.02-0.07-0.05-0.12-0.07 -2.39-1.05-2.4-1.48-4.15 0.12 -0.48 0.44-0.37 1-0.61 1.5 0.9 0.5-0.68 1.77-0.68 1.77l-1.25 0.83c0 0-0.43-0.17-1.55-0.17 -0.05 0-0.1 0-0.14 0 -1.28 0.01-1.34 0.08-1.85 1.52 0.36 0.29 0.8 0.16 1.2 0.16 1.47 0.02 0.4 0.56 0.4 0.56v1.11l-0.97 0.97 -0.83 2.08c0 0 0.07 2.32-1.57 1.11 -0.88-0.65-2.07-0.93-3.06-1.5 -0.15-0.09-0.35-0.16-0.49 0.04 -0.11 0.17-0.11 0.36 0 0.52 0.31 0.46 0.71 0.85 1.17 1.18 0.25 0.18 0.42 0.38 0.29 0.69 -0.11 0.28-0.35 0.43-0.65 0.44 -0.41 0.01-0.84 0.09-1.21-0.18 -0.76-0.56-1.41-0.44-2.1 0.2 -0.8 0.75-0.94 0.71-1.69-0.06 -0.13-0.13-0.24-0.28-0.35-0.43 -0.21-0.32-0.51-0.37-0.85-0.28 -0.36 0.1-0.51 0.37-0.55 0.72 -0.03 0.28-0.03 0.56-0.09 0.82 -0.06 0.27-0.31 0.32-0.55 0.31 -0.27-0.02-0.5-0.22-0.42-0.44 0.3-0.88 0.02-1.86 0.5-2.68 0.17-0.29 0.27-0.57 0.28-0.91 0.03-1-0.25-1.2-1.21-0.87 -0.26 0.09-0.53 0.14-0.8 0.22 -0.89 0.29-1.05 1.01-0.35 1.67 0.13 0.13 0.31 0.21 0.46 0.31 0.42 0.29 0.94 0.58 0.7 1.19 -0.24 0.6-0.85 0.47-1.34 0.43 -0.64-0.06-1.3-0.12-1.9-0.33 -1.3-0.43-2.67-0.76-3.46-2.09 -0.16-0.27-0.36-0.48-0.41-0.82 -0.25-1.4-0.39-1.51-1.78-1.53 -0.23 0-0.46 0-0.69 0 0.02-0.24 0.12-0.41 0.38-0.49 0.24-0.07 0.4-0.23 0.22-0.49 -0.13-0.19-0.37-0.4-0.54-0.16 -0.31 0.42-1 0.22-1.19 0.79 -0.16-0.04-0.3-0.02-0.4 0.13 -0.05-0.32-0.08-0.64-0.16-0.95 -0.26-1.02-0.52-1.25-1.6-1.31 -1.02-0.05-1.82-0.33-2.27-1.39 -0.46-1.08-1.35-1.98-1.25-3.29 0.03-0.39-0.27-0.69-0.62-0.86 -0.55-0.26-0.85-0.84-1.46-1.04 -0.25-0.08-0.83-1.81-0.76-2.17 0.56-2.78-0.57-5.26-1.4-7.78 -0.22-0.66-0.87-1.18-1.36-1.73 -0.57-0.65-1.36-1.14-1.34-2.16 0-0.18-0.24-0.38-0.41-0.53 -0.49-0.44-0.95-0.87-0.96-1.61 0-0.2-0.15-0.47-0.31-0.6 -1.34-1.03-1.54-2.65-2.15-4.05 0.08-0.48-0.18-0.7-0.6-0.81 -0.43-0.67-0.06-1.6-0.69-2.21 -0.25-0.54-0.77-0.2-1.15-0.35 -0.04-0.34-0.07-0.68-0.11-1.03 0.06-0.18 0.12-0.37 0.18-0.55C18.39 68.5 18.83 69.12 19.17 69.7c0.95 1.6 2.55 2.67 3.46 4.3 1.33 0.53 1.93 2.1 3.42 2.42 0.64 0.14 1.03 0.93 1.88 0.79 0-0.64 0.02-1.23 0-1.83 -0.02-0.52 0.05-1.03 0.36-1.45 0.77-1.07 1.9-1.85 2.38-3.19 0.18-0.48 0.97-0.76 1.32-1.34 0.27-0.46 0.78-0.45 1.23-0.2 0.23 0.14 0.43 0.35 0.62 0.55 0.43 0.45 0.91 0.55 1.27 0.01 0.74-1.11 1.87-0.9 2.73-0.57 1.69 0.65 3.32 0.21 4.98 0.16 0.79-0.03 1.59-0.5 2.36 0.18 0.21 0.19 0.63 0.11 0.94 0 0.88-0.32 1.7 0.13 2.39 0.44 0.65 0.3 1.25 0.49 1.94 0.51 0.09 0.11 0.18 0.21 0.27 0.32 0.34 0.6 0.77 1.12 1.39 1.46 0.67 0.37 1.36 0.63 2.1 0.2 0.66-0.39 1.48-0.66 1.3-1.71 -0.04-0.24 0.11-0.44 0.33-0.57 0.47-0.27 0.41-0.65 0.25-1.08 -0.2-0.53-0.36-1.05 0.31-1.41 0.12-0.06 0.19-0.33 0.18-0.5 -0.08-0.94 0.32-1.81 0.3-2.74 -0.03-1.18-0.19-2.41 0.69-3.43 0.13-0.15 0.12-0.44 0.17-0.66 0.26-1.15 0.34-2.35 0.8-3.45 0.04-0.25 0.08-0.51 0.13-0.76 0.87-0.65 0.38-1.53 0.39-2.32 0.03-0.19 0.06-0.37 0.09-0.56 1.18-1.33 1.48-2.8 0.7-4.45 -0.19-0.39-0.19-0.81-0.07-1.22 0.46-1.44-0.07-2.58-1.02-3.62 -0.15-0.16-0.38-0.45-0.33-0.57 0.4-0.86-0.21-1.52-0.46-2.2 -0.38-1.07-0.82-2.19-1.52-3.06 -0.77-0.97-1.51-1.94-2.12-3.01 -0.14-0.26-0.33-0.48-0.62-0.48 -0.67-0.01-0.88-0.47-0.96-0.98 -0.13-0.82-0.62-1.29-1.34-1.6 -0.1-0.1-0.2-0.19-0.3-0.29 -0.44-0.99-1.2-1.52-2.29-1.58 -0.08-0.03-0.16-0.05-0.24-0.05 -0.08-0.45-0.32-0.86-0.31-1.34 0.01-0.47-0.33-0.61-0.73-0.64 -0.01-0.08-0.05-0.15-0.09-0.22 -0.07-1.21-0.87-2.07-1.46-3.03 -0.43-1.26-1.49-1.94-2.46-2.7l-0.05-0.05c-0.03-0.98-0.64-1.66-1.21-2.36 -0.06-0.07-0.26-0.03-0.39-0.04 -0.19-0.05-0.37-0.09-0.56-0.14 -0.08-0.67-0.55-0.75-1.11-0.77 -0.65-0.02-1.51-0.06-1.76-0.6 -0.59-1.31-1.9-1.52-2.88-2.21 -0.44-0.31-0.73-0.2-1.02 0.23 -0.34 0.51-0.8 1.07-1.39 1.07 -1.32-0.02-2.59 0.76-3.94 0.22 -0.34-0.14-0.74-0.18-0.92 0.31 -0.07 0.19-0.21 0.39-0.38 0.33 -0.75-0.28-1.19 0.29-1.75 0.56 -0.82 0.4-1.63 0.83-2.61 0.67 -0.46-0.08-0.91 0.05-1.35 0.21 -1.54 0.57-3.13 1-4.33 2.24 -0.32 0.33-0.77 0.48-1.23 0.59 -1.09 0.27-2.07 0.76-2.86 1.59 -0.22 0.23-0.47 0.52-0.75 0.6 -1.19 0.33-1.96 1.21-2.71 2.06 -1.38 1.57-2.54 3.27-2.82 5.42C6.9 32.85 6.87 33.73 7.01 34.59c0.15 0.96 0.2 1.92 0.24 2.88 0.01 0.32 0.09 0.64 0.2 0.94 0.59 1.56 0.81 3.2 1.08 4.82 0.09 0.55 0.17 1.09 0.43 1.58 0.36 0.68 0.64 1.36 0.64 1.36l0.56 2.64c0 0 1.04 1.39 0.97 2.22 -0.09 1.03 0.71 1.6 0.96 2.58 0.14 0.55 0.31 1.1-0.51 1.3 -0.45 0.11-0.5 0.64-0.83 0.89 -0.19-0.2-0.22-0.43-0.17-0.69 0.34-0.39 0.1-0.58-0.25-0.73 -0.87-0.7-1.34-1.63-1.51-2.72 -0.12-0.75-0.52-1.15-1.17-1.56 -1.19-0.76-1.83-1.91-2.31-3.33 -0.44-1.31-0.52-2.45-0.21-3.72 0.11-0.45-0.17-0.57-0.57-0.46 -0.09 0.02-0.17 0.06-0.26 0.09 -1.6 0.46-2.93-0.28-3.51-1.91 -0.44-1.26-0.19-2.44 0.27-3.61 0.12-0.3 0.3-0.57 0.44-0.86 0.52-1.08 0.51-1.24-0.52-1.89 -0.45-0.28-0.79-0.58-0.52-1.09 0.72-1.33 0.37-2.73-0.15-3.87 -0.7-1.53-0.01-2.44 0.79-3.46 0.08-0.11 0.22-0.17 0.32-0.25 0.31 0.06 0.52-0.1 0.68-0.32 0.55-0.77 0.47-1.31-0.3-2.39 0-0.52 0.11-1.05 0.44-1.43 0.68-0.76 0.79-1.64 0.73-2.58 -0.03-0.52 0.13-1.01 0.32-1.48 0.11-0.28 0.36-0.23 0.58-0.15 0.17 0.38 0.33 0.75 0.51 1.12 0.14 0.3 0.41 0.4 0.68 0.23 0.8-0.51 1.88-0.67 2.06-1.93 0.05-0.39 0.39-0.71-0.04-1.07 -0.21-0.18-0.22-0.42-0.02-0.6 0.54-0.51 0.65-1.3 1.19-1.81 0.21-0.14 0.41-0.27 0.62-0.41 0.86-0.31 1.42-0.89 1.64-1.79 0.03-0.04 0.07-0.07 0.08-0.11 0.17-1.38 0.89-2.02 2.33-1.85 0.6 0.07 1.03-0.2 1.19-0.88 0.21-0.88 0.83-1.45 1.72-1.59 0.54-0.09 0.91-0.35 1.32-0.68 0.65-0.51 1.24-1.1 2.04-1.4 0.52-0.19 0.75-0.66 0.97-1.12 0.22-0.47 0.59-0.76 1.1-0.67 0.64 0.11 1.25 0.24 1.86-0.15 0.21-0.13 0.42 0.06 0.55 0.28 0.44 0.78 0.99 0.7 1.59 0.19 0.38-0.32 0.82-0.44 1.3-0.28 0.8 0.28 1.51 0.16 2.24-0.29 0.42-0.26 0.95-0.34 1.43-0.5 0.78-0.23 0.62-0.97 0.82-1.52 0.64-0.72 1.41-0.59 2.2-0.34 0.1 0.3 0.25 0.43 0.51 0.16 0.3-0.03 0.6-0.08 0.88 0.09 0.07 0.27 0.23 0.38 0.51 0.27 0.32 0.01 0.63 0.03 0.95 0.04 0.14 0.24 0.33 0.26 0.56 0.12 1.36 0.17 2.73-0.27 4.09 0.12 0.01 0.19 0.02 0.38 0.02 0.57 0.45-0.01 0.88 0.09 1.31 0.23 0.42 0.13 0.89 0.2 1.19-0.3 0.36-0.2 0.74-0.14 1.12-0.07 0.05 1.22 0.05 1.23 1.11 1.49 0.23 0.06 0.4 0.14 0.55 0.35 0.66 0.91 1.74 0.79 2.67 1.01 0.15 0.04 0.33-0.14 0.35-0.35 0.11-0.06 0.22-0.12 0.33-0.18 0.59-0.22 1.09-0.24 1.43 0.43 0.12 0.23 0.47 0.51 0.66 0.27 0.72-0.9 1.75-0.56 2.64-0.75 0.09 0.05 0.18 0.1 0.28 0.15 -0.23 0.27-0.58 0.27-0.87 0.39 -0.75 0.32-0.88 0.64-0.43 1.29 0.13 0.18 0.34 0.3 0.5 0.46 0.41 0.4 0.72 1.05 1.46 0.79 0.7-0.25 0.32-0.95 0.42-1.43 0.3 0.03 0.52 0.06 0.73 0.08 0.49-0.04 0.92-0.02 0.8 0.67 -0.25 0.26-0.09 0.39 0.15 0.5 0.09 0.31 0.18 0.62 0.27 0.92 0.01 0.34 0.08 0.6 0.49 0.31 0.27 0 0.47 0.13 0.47 0.39 -0.01 0.69 0.2 1.34 0.12 2.06 -0.12 1.06 0.31 1.36 1.35 1.5 1.28 0.18 2.19 0.98 2.58 2.18 0.27 0.84 0.59 1.55 1.13 2.27 0.53 0.71 1.03 1.53 1.37 2.33 0.46 1.07 1.29 1.89 1.66 3 0.27 0.81 0.83 1.51 0.86 2.43 0.02 0.6 0.73 0.95 0.8 1.57 0.15 1.48 1.09 2.81 0.8 4.36 0.79 1.26 0.37 2.57 0.18 3.87 -0.72-0.24-1-1.05-1.69-1.33l-0.02-0.1 -0.09 0.04c-0.83-0.31-1.66-0.47-2.46 0.06 -0.82 0.25-0.83 1.35-1.68 1.61 -0.17 0.05-0.35 0.44-0.15 0.71 0.16 0.21 0.41 0.14 0.62 0.05 0.29-0.13 0.59-0.24 0.91-0.18 -0.07 0.11-0.12 0.27-0.23 0.33 -1.51 0.88-1.9 2.32-2.1 3.93 -0.13 1.03-0.49 2.04-1.28 2.81 -0.43 0.42-0.32 0.91-0.01 1.24 0.9 0.97 1.01 2.22 1.3 3.4 0.08 0.32 0.09 0.66 0.47 0.76 1.46 0.41 0.63 2.43 2.03 2.9 0.03 0.01 0 0.26-0.05 0.39 -0.14 0.36 0.02 0.61 0.23 0.88 0.33 0.41 0.44 0.9 0.5 1.41 -0.02 0.7 0.41 0.89 1.01 0.89l0 0c-0.01 0.48 0.39 0.72 0.61 1.06 -0.12 0.5-0.44 1.08 0.48 1.15l0.03 0.02c0.01 0.44 0.02 0.88 0.03 1.31 0.01 0.34 0.12 0.6 0.52 0.6l0.02 0.02c-0.01 0.27-0.07 0.56 0.15 0.78 0.03 0.3 0.08 0.59 0.42 0.7 0.08 0.05 0.15 0.1 0.23 0.15 -0.07 0.55-0.13 1.09 0.29 1.56 0.27 0.3 0.18 0.69 0.25 1.05 0.13 0.47 0.28 0.94 0.84 1.07 0.26 0.74 0.25 1.59 0.88 2.19 0 0.36-0.1 0.76 0.02 1.07 0.23 0.59-0.07 1.42 0.73 1.76 -0.01 0.25-0.02 0.49-0.03 0.74 -0.2 0.42-0.1 0.9-0.35 1.35 -0.23 0.42 0.15 0.61 0.58 0.59 -0.02 0.28-0.03 0.56-0.05 0.85 -0.18 0.09-0.35 0.27-0.22 0.42 0.56 0.62 0.44 1.36 0.41 2.08C72.3 75.4 72.68 76.77 71.9 78.06zM45.3 76.05c0.01-0.01 0-0.02-0.03-0.03C45.28 76.02 45.29 76.04 45.3 76.05c-0.09 0.12-2.52 0.36-4.61 0.53 -1.09 0.09-1.64-0.18-2.57 0.11 -0.51 0.16-0.96 0.4-1.32 0.72 -1.19 1.07-3.33 1.87-3.33 2.92 0 0.43 1.82 2.16 2.08 2.5 0.43 0.55 1.07 1.17 1.53 1.67 1.05 1.12 3.11 1.41 4.44 0.69 0.6-0.32 1.87-0.97 2.22-1.53 0.24-0.38 0.5-0.66 1.11-0.56 1.07 0.18 0.47-1.36 0.58-2.44 0.05-0.45 0.01-0.92 0.01-1.38 0 0-0.01 0-0.01 0 0-0.46 0-0.92 0-1.38C45.43 77.52 45.65 76.28 45.3 76.05zM40.47 1.78c0.03 0.07 0.21-0.08 0.27-0.21C40.64 1.64 40.33 1.47 40.47 1.78z"/>
</svg>