<svg xmlns:xlink="http://www.w3.org/1999/xlink" xmlns="http://www.w3.org/2000/svg" height="261" width="1399" viewBox="0 0 1399 261">
  <path fill-rule="evenodd" d="M1199 163C1199 163 1227 129 1227 129 1227 129 1192 99 1192 99 1192 99 1132 99 1132 99 1132 99 1066 126 1066 126 1066 126 1043 88 1043 88 1043 88 997 74 997 74 997 74 960 89 960 89 960 89 937 133 937 133 937 133 891 156 891 156 891 156 875 202 875 202 875 202 906 243 906 243 906 243 965 261 965 261 965 261 1006 227 1006 227 1006 227 1055 255 1055 255 1055 255 1106 247 1106 247 1106 247 1111 204 1111 204 1111 204 1148 225 1148 225 1148 225 1210 207 1210 207 1210 207 1199 163 1199 163ZM1223 196C1223 196 1238 181 1238 181 1238 181 1237 163 1237 163 1237 163 1268 161 1268 161 1268 161 1287 174 1287 174 1287 174 1302 165 1302 165 1302 165 1319 165 1319 165 1319 165 1335 176 1335 176 1335 176 1361 165 1361 165 1361 165 1389 180 1389 180 1389 180 1399 200 1399 200 1399 200 1377 236 1377 236 1377 236 1341 244 1341 244 1341 244 1314 228 1314 228 1314 228 1287 239 1287 239 1287 239 1263 224 1263 224 1263 224 1244 228 1244 228 1244 228 1229 216 1229 216 1229 216 1223 196 1223 196ZM258 72C258 72 277 43 277 43 277 43 250 17 250 17 250 17 198 19 198 19 198 19 157 37 157 37 157 37 136 12 136 12 136 12 101 0 101 0 101 0 65 12 65 12 65 12 49 48 49 48 49 48 14 65 14 65 14 65 0 99 0 99 0 99 22 133 22 133 22 133 69 146 69 146 69 146 106 118 106 118 106 118 144 141 144 141 144 141 184 130 184 130 184 130 188 101 188 101 188 101 214 118 214 118 214 118 265 102 265 102 265 102 258 72 258 72Z"/>
</svg>