<?xml version="1.0" encoding="utf-8"?>
<!-- Generator: Adobe Illustrator 15.1.0, SVG Export Plug-In  -->
<!DOCTYPE svg PUBLIC "-//W3C//DTD SVG 1.1//EN" "http://www.w3.org/Graphics/SVG/1.1/DTD/svg11.dtd" [
	<!ENTITY ns_flows "http://ns.adobe.com/Flows/1.0/">
]>
<svg version="1.1"
	 xmlns="http://www.w3.org/2000/svg" xmlns:xlink="http://www.w3.org/1999/xlink" xmlns:a="http://ns.adobe.com/AdobeSVGViewerExtensions/3.0/"
	 x="0px" y="0px" width="127px" height="127px" viewBox="-0.928 -0.929 127 127" enable-background="new -0.928 -0.929 127 127"
	 xml:space="preserve">
<defs>
</defs>
<path d="M120.418,4.726C117.269,1.575,113.492,0,109.094,0H16.051c-4.4,0-8.174,1.576-11.325,4.726C1.575,7.876,0,11.651,0,16.05
	v93.042c0,4.398,1.575,8.174,4.727,11.324c3.15,3.15,6.926,4.727,11.325,4.727h93.042c4.397,0,8.174-1.576,11.323-4.727
	c3.151-3.15,4.726-6.926,4.726-11.324V16.05C125.143,11.65,123.568,7.877,120.418,4.726z M44.935,45.095
	c4.915-4.752,10.822-7.129,17.72-7.129c6.952,0,12.886,2.377,17.802,7.129c4.915,4.753,7.373,10.497,7.373,17.232
	c0,6.734-2.458,12.479-7.373,17.23c-4.916,4.752-10.849,7.13-17.802,7.13c-6.898,0-12.804-2.378-17.72-7.13
	s-7.374-10.496-7.374-17.23C37.561,55.592,40.019,49.848,44.935,45.095z M110.969,105.752c0,1.411-0.49,2.592-1.468,3.543
	c-0.979,0.951-2.146,1.426-3.505,1.426H18.903c-1.412,0-2.594-0.475-3.544-1.426c-0.951-0.949-1.426-2.132-1.426-3.543V52.957H25.42
	c-1.086,3.422-1.629,6.98-1.629,10.673c0,10.431,3.802,19.324,11.406,26.685c7.605,7.358,16.757,11.04,27.457,11.04
	c7.061,0,13.579-1.686,19.555-5.053c5.976-3.369,10.698-7.943,14.176-13.729s5.216-12.1,5.216-18.943
	c0-3.692-0.546-7.25-1.632-10.673h11V105.752L110.969,105.752z M110.969,32.996c0,1.575-0.543,2.906-1.632,3.992
	c-1.086,1.087-2.415,1.63-3.991,1.63H91.169c-1.573,0-2.905-0.543-3.991-1.63c-1.086-1.086-1.629-2.417-1.629-3.992V19.554
	c0-1.521,0.543-2.838,1.629-3.952c1.086-1.113,2.418-1.67,3.991-1.67h14.177c1.576,0,2.905,0.557,3.991,1.67
	c1.089,1.114,1.632,2.431,1.632,3.952V32.996z"/>
</svg>
