<svg xmlns="http://www.w3.org/2000/svg" xmlns:xlink="http://www.w3.org/1999/xlink" xmlns:a="http://ns.adobe.com/AdobeSVGViewerExtensions/3.0/" version="1.1" x="0" y="0" width="29" height="27" viewBox="-0.96 -0.39 29 27" enable-background="new -0.956 -0.393 29 27" xml:space="preserve">
  <path d="M0.34 8.52h5.89v17.7H0.34V8.52z"/>
  <path d="M25.57 10.13c-1.24-1.35-2.87-2.03-4.91-2.03 -0.75 0-1.43 0.09-2.04 0.28 -0.61 0.19-1.13 0.44-1.55 0.78 -0.42 0.33-0.76 0.64-1.01 0.93 -0.24 0.27-0.47 0.59-0.7 0.95V8.52H9.48L9.5 9.38c0.01 0.57 0.02 2.33 0.02 5.29 0 2.95-0.01 6.8-0.04 11.55h5.88v-9.87c0-0.61 0.07-1.09 0.2-1.45 0.25-0.61 0.63-1.12 1.13-1.53 0.51-0.41 1.14-0.62 1.89-0.62 1.02 0 1.78 0.35 2.26 1.06 0.48 0.71 0.72 1.69 0.72 2.94v9.47h5.88V16.07C27.43 13.47 26.81 11.49 25.57 10.13L25.57 10.13z"/>
  <path d="M3.32 0C2.33 0 1.53 0.29 0.92 0.87 0.31 1.44 0 2.17 0 3.05c0 0.87 0.3 1.6 0.89 2.18S2.27 6.11 3.25 6.11h0.04c1 0 1.81-0.29 2.42-0.87C6.32 4.65 6.62 3.92 6.61 3.05c-0.01-0.88-0.32-1.61-0.91-2.19C5.1 0.29 4.31 0 3.32 0z"/>
</svg>