<svg xmlns="http://www.w3.org/2000/svg" xmlns:xlink="http://www.w3.org/1999/xlink" xmlns:a="http://ns.adobe.com/AdobeSVGViewerExtensions/3.0/" version="1.1" x="0" y="0" width="352" height="38" viewBox="0 -0.02 352 38" enable-background="new 0 -0.02 352 38" xml:space="preserve">
  <path d="M336.37 13.21c0.58 0.37 1.24 0.7 1.99 1 0.75 0.29 1.58 0.6 2.49 0.91 1.88 0.71 3.52 1.4 4.92 2.08 1.39 0.68 2.55 1.48 3.48 2.39 0.92 0.91 1.61 1.98 2.07 3.2 0.45 1.23 0.68 2.72 0.68 4.47 0 3.4-1.19 6.03-3.56 7.9 -2.38 1.88-5.95 2.81-10.73 2.81 -1.61 0-3.05-0.09-4.35-0.28 -1.29-0.2-2.43-0.43-3.42-0.71 -1-0.28-1.85-0.58-2.57-0.9 -0.71-0.31-1.31-0.61-1.8-0.89l2.3-6.51c1.08 0.59 2.42 1.13 4 1.6 1.59 0.47 3.54 0.71 5.84 0.71 1.15 0 2.1-0.1 2.85-0.29 0.75-0.19 1.35-0.45 1.81-0.79 0.45-0.33 0.76-0.72 0.94-1.18 0.17-0.45 0.26-0.96 0.26-1.52 0-1.19-0.56-2.18-1.67-2.97 -1.12-0.79-3.04-1.64-5.76-2.55 -1.19-0.42-2.37-0.9-3.56-1.44 -1.19-0.55-2.25-1.23-3.19-2.05 -0.94-0.82-1.71-1.82-2.31-3 -0.59-1.17-0.88-2.6-0.88-4.28s0.31-3.19 0.94-4.54c0.62-1.35 1.51-2.5 2.67-3.44 1.15-0.95 2.54-1.67 4.18-2.18 1.64-0.51 3.49-0.76 5.55-0.76 2.44 0 4.55 0.26 6.33 0.78 1.78 0.53 3.25 1.11 4.4 1.74l-2.36 6.46c-1.01-0.53-2.13-0.99-3.37-1.39 -1.24-0.41-2.73-0.61-4.48-0.61 -1.95 0-3.35 0.27-4.21 0.82 -0.85 0.54-1.28 1.37-1.28 2.49 0 0.67 0.16 1.23 0.47 1.68C335.35 12.43 335.8 12.84 336.37 13.21zM290.08 37.71c-1.98 0-3.96-0.06-5.93-0.18 -1.98-0.12-4.03-0.41-6.15-0.87V1.36c1.67-0.31 3.5-0.55 5.49-0.71s3.84-0.23 5.55-0.23c2.3 0 4.42 0.16 6.36 0.5 1.93 0.33 3.6 0.9 5 1.7 1.39 0.81 2.48 1.87 3.27 3.18 0.78 1.31 1.17 2.93 1.17 4.86 0 2.91-1.39 5.2-4.18 6.88 2.3 0.88 3.87 2.07 4.71 3.57 0.83 1.51 1.25 3.21 1.25 5.1 0 3.82-1.38 6.69-4.16 8.61C299.69 36.75 295.56 37.71 290.08 37.71zM295.27 7.93c-1.12-0.6-2.76-0.9-4.92-0.9 -0.7 0-1.45 0.01-2.25 0.03 -0.81 0.02-1.52 0.06-2.15 0.13v7.93h3.98c2.51 0 4.31-0.32 5.39-0.97 1.08-0.64 1.62-1.69 1.62-3.12C296.94 9.56 296.38 8.52 295.27 7.93zM296.47 22.45c-1.26-0.71-3.05-1.07-5.39-1.07h-5.13v9.4c0.59 0.07 1.24 0.12 1.94 0.16 0.69 0.03 1.46 0.05 2.3 0.05 2.44 0 4.41-0.35 5.91-1.05s2.25-2 2.25-3.89C298.35 24.37 297.73 23.17 296.47 22.45zM248.64 33.34c-0.46-1.33-0.93-2.66-1.39-3.98h-14.16c-0.46 1.33-0.92 2.66-1.38 3.99 -0.46 1.34-0.89 2.63-1.28 3.89h-8.48c1.36-3.92 2.66-7.55 3.88-10.87 1.23-3.33 2.42-6.46 3.6-9.41 1.17-2.94 2.32-5.73 3.46-8.38 1.14-2.64 2.32-5.22 3.55-7.74h7.73c1.2 2.52 2.37 5.1 3.53 7.74 1.15 2.65 2.32 5.44 3.49 8.38 1.18 2.95 2.38 6.08 3.61 9.41 1.22 3.32 2.52 6.95 3.89 10.87h-8.75C249.54 35.97 249.1 34.68 248.64 33.34zM243.7 18.32c-0.52-1.44-1.01-2.75-1.48-3.94 -0.47-1.2-0.88-2.25-1.23-3.16 -0.35-0.91-0.64-1.62-0.86-2.14 -0.18 0.53-0.45 1.25-0.8 2.16 -0.35 0.91-0.75 1.96-1.19 3.16 -0.45 1.19-0.95 2.5-1.51 3.94 -0.55 1.43-1.11 2.93-1.69 4.51h10.38C244.76 21.27 244.22 19.76 243.7 18.32zM179.87 0.84h8.17v29.36h16.06v7.04H179.87V0.84zM148.21 17.18h-0.35c-0.29-0.77-0.59-1.53-0.88-2.29 -1.1-2.86-2.24-5.6-3.43-8.22 -1.22 2.62-2.38 5.36-3.48 8.22 -1.1 2.85-2.19 5.8-3.27 8.85h0.09l-5.2 13.5h-4.94c1.4-3.85 2.71-7.41 3.93-10.69 1.22-3.27 2.42-6.38 3.58-9.32 1.17-2.95 2.33-5.76 3.48-8.44 1.16-2.68 2.36-5.33 3.61-7.95h4.66c1.26 2.62 2.46 5.27 3.61 7.95 1.16 2.68 2.32 5.49 3.48 8.44 1.17 2.94 2.37 6.05 3.59 9.32 1.22 3.28 2.53 6.84 3.92 10.69h-5.51L148.21 17.18zM101.53 26.68c1.6 1.75 3.11 3.54 4.53 5.36 1.41 1.82 2.59 3.55 3.53 5.2h-5.97c-1.04-1.65-2.25-3.3-3.61-4.96 -1.36-1.67-2.8-3.26-4.32-4.78 -1.51-1.53-3.05-2.94-4.6-4.23 -1.55-1.3-3.06-2.4-4.53-3.31V37.24h-5.07V0.84h5.07v16.07c1.22-1.16 2.57-2.46 4.03-3.91 1.47-1.46 2.92-2.92 4.35-4.39 1.43-1.47 2.78-2.88 4.05-4.23 1.28-1.35 2.35-2.53 3.22-3.54h6.12c-1.08 1.19-2.3 2.51-3.66 3.96 -1.36 1.46-2.78 2.94-4.26 4.47 -1.49 1.52-2.96 3.02-4.43 4.49 -1.46 1.47-2.84 2.83-4.13 4.1 1.5 1.05 3.09 2.34 4.76 3.88C98.29 23.29 99.93 24.93 101.53 26.68zM52.76 0.84h5.07v36.4h-5.07V0.84zM22.22 32.88c-1-1.61-2.07-3.28-3.22-5.02 -1.15-1.73-2.35-3.49-3.58-5.28 -1.24-1.78-2.47-3.51-3.69-5.17 -1.23-1.66-2.41-3.23-3.56-4.7S5.95 9.94 4.98 8.82v28.42H0V0.84h4.03c1.64 1.75 3.4 3.79 5.26 6.12 1.87 2.32 3.72 4.72 5.55 7.19 1.83 2.47 3.56 4.9 5.18 7.28 1.62 2.38 2.99 4.5 4.11 6.36V0.84h4.97v36.4h-4.24C24.09 35.95 23.21 34.49 22.22 32.88z"/>
</svg>