<svg xmlns="http://www.w3.org/2000/svg" xmlns:xlink="http://www.w3.org/1999/xlink" xmlns:a="http://ns.adobe.com/AdobeSVGViewerExtensions/3.0/" version="1.1" x="0" y="0" width="29" height="23" viewBox="-0.6 -0.07 29 23" enable-background="new -0.601 -0.071 29 23" xml:space="preserve">
  <path d="M28.14 2.72c-1.11 0.48-2.21 0.77-3.32 0.89 1.25-0.75 2.1-1.81 2.54-3.18 -1.14 0.68-2.36 1.14-3.66 1.39C22.55 0.61 21.15 0 19.48 0c-1.59 0-2.95 0.56-4.08 1.69s-1.69 2.49-1.69 4.08c0 0.43 0.05 0.87 0.14 1.32 -2.36-0.12-4.57-0.71-6.63-1.78C5.16 4.25 3.41 2.83 1.97 1.05 1.44 1.95 1.18 2.92 1.18 3.96c0 0.99 0.23 1.91 0.7 2.75 0.47 0.85 1.09 1.53 1.88 2.05C2.82 8.73 1.95 8.49 1.14 8.03v0.07c0 1.39 0.44 2.62 1.31 3.67s1.98 1.72 3.31 1.99c-0.5 0.13-1.01 0.2-1.52 0.2 -0.33 0-0.7-0.03-1.09-0.09 0.37 1.16 1.05 2.1 2.04 2.85 0.99 0.74 2.11 1.13 3.36 1.15 -2.1 1.64-4.48 2.47-7.16 2.47 -0.51 0-0.98-0.02-1.39-0.07 2.68 1.73 5.63 2.59 8.86 2.59 2.05 0 3.97-0.32 5.77-0.97s3.33-1.52 4.61-2.61c1.27-1.09 2.37-2.34 3.29-3.76s1.61-2.9 2.06-4.44c0.45-1.54 0.68-3.09 0.68-4.63 0-0.33-0.01-0.58-0.02-0.75 1.13-0.82 2.1-1.81 2.89-2.98L28.14 2.72z"/>
</svg>